<svg xmlns="http://www.w3.org/2000/svg" xmlns:xlink="http://www.w3.org/1999/xlink" width="440" height="742" viewBox="0 0 440 742" role="img" aria-label="EnerLens Card">
<rect x="0" y="0" width="440.0" height="742.0" rx="12" fill="rgb(29, 30, 33)"/>
<g transform="translate(24,78) scale(0.9800)"><path d="M114,200 L286,200" fill="none" stroke="rgba(160, 160, 160, 0.3)" stroke-width="3.06122px" stroke-linecap="round" opacity="0.25"/><path d="M114,200 C168,200 200,232 200,286" fill="none" stroke="rgba(160, 160, 160, 0.3)" stroke-width="3.06122px" stroke-linecap="round" opacity="0.25"/><path d="M200,286 C200,232 232,200 286,200" fill="none" stroke="rgba(160, 160, 160, 0.3)" stroke-width="3.06122px" stroke-linecap="round" opacity="0.25"/><path d="M200,114 C200,168 232,200 286,200" fill="none" stroke="rgb(255, 152, 0)" stroke-width="3.06122px" stroke-linecap="round" opacity="0.8"/><path d="M200,114 C200,168 168,200 114,200" fill="none" stroke="rgb(131, 83, 209)" stroke-width="3.06122px" stroke-linecap="round" opacity="0.8"/><path d="M200,114 L200,286" fill="none" stroke="rgb(240, 98, 146)" stroke-width="3.06122px" stroke-linecap="round" opacity="0.8"/><g><circle cx="0.00" r="5.10" fill="rgb(240, 98, 146)"/><circle cx="0.43" r="4.49" fill="rgb(243, 129, 168)" fill-opacity="0.316"/><circle cx="0.86" r="3.88" fill="rgb(246, 161, 190)" fill-opacity="0.316"/><circle cx="1.29" r="3.27" fill="rgb(249, 192, 211)" fill-opacity="0.316"/><circle cx="1.71" r="2.65" fill="rgb(252, 224, 233)" fill-opacity="0.316"/><circle cx="2.14" r="2.04" fill="rgb(255, 255, 255)" fill-opacity="0.316"/><animateMotion dur="3.59s" repeatCount="indefinite" begin="-0.55s" path="M 200 114 L 200 286" rotate="auto"/></g><g><circle cx="0.00" r="5.10" fill="rgb(131, 83, 209)"/><circle cx="0.43" r="4.49" fill="rgb(156, 117, 218)" fill-opacity="0.316"/><circle cx="0.86" r="3.88" fill="rgb(181, 152, 227)" fill-opacity="0.316"/><circle cx="1.29" r="3.27" fill="rgb(205, 186, 237)" fill-opacity="0.316"/><circle cx="1.71" r="2.65" fill="rgb(230, 221, 246)" fill-opacity="0.316"/><circle cx="2.14" r="2.04" fill="rgb(255, 255, 255)" fill-opacity="0.316"/><animateMotion dur="4.50s" repeatCount="indefinite" begin="-0.55s" path="M 200 114 C 200 168 168 200 114 200" rotate="auto"/></g><g><circle cx="0.00" r="5.10" fill="rgb(255, 152, 0)"/><circle cx="0.43" r="4.49" fill="rgb(255, 173, 51)" fill-opacity="0.316"/><circle cx="0.86" r="3.88" fill="rgb(255, 193, 102)" fill-opacity="0.316"/><circle cx="1.29" r="3.27" fill="rgb(255, 214, 153)" fill-opacity="0.316"/><circle cx="1.71" r="2.65" fill="rgb(255, 234, 204)" fill-opacity="0.316"/><circle cx="2.14" r="2.04" fill="rgb(255, 255, 255)" fill-opacity="0.316"/><animateMotion dur="1.10s" repeatCount="indefinite" begin="-0.55s" path="M 200 114 C 200 168 232 200 286 200" rotate="auto"/></g><g><circle cx="0.00" r="5.10" fill="rgb(255, 152, 0)"/><circle cx="0.43" r="4.49" fill="rgb(255, 173, 51)" fill-opacity="0.316"/><circle cx="0.86" r="3.88" fill="rgb(255, 193, 102)" fill-opacity="0.316"/><circle cx="1.29" r="3.27" fill="rgb(255, 214, 153)" fill-opacity="0.316"/><circle cx="1.71" r="2.65" fill="rgb(255, 234, 204)" fill-opacity="0.316"/><circle cx="2.14" r="2.04" fill="rgb(255, 255, 255)" fill-opacity="0.316"/><animateMotion dur="1.10s" repeatCount="indefinite" begin="-0.77s" path="M 200 114 C 200 168 232 200 286 200" rotate="auto"/></g><g><circle cx="0.00" r="5.10" fill="rgb(255, 152, 0)"/><circle cx="0.43" r="4.49" fill="rgb(255, 173, 51)" fill-opacity="0.316"/><circle cx="0.86" r="3.88" fill="rgb(255, 193, 102)" fill-opacity="0.316"/><circle cx="1.29" r="3.27" fill="rgb(255, 214, 153)" fill-opacity="0.316"/><circle cx="1.71" r="2.65" fill="rgb(255, 234, 204)" fill-opacity="0.316"/><circle cx="2.14" r="2.04" fill="rgb(255, 255, 255)" fill-opacity="0.316"/><animateMotion dur="1.10s" repeatCount="indefinite" begin="-0.99s" path="M 200 114 C 200 168 232 200 286 200" rotate="auto"/></g><g><circle cx="0.00" r="5.10" fill="rgb(255, 152, 0)"/><circle cx="0.43" r="4.49" fill="rgb(255, 173, 51)" fill-opacity="0.316"/><circle cx="0.86" r="3.88" fill="rgb(255, 193, 102)" fill-opacity="0.316"/><circle cx="1.29" r="3.27" fill="rgb(255, 214, 153)" fill-opacity="0.316"/><circle cx="1.71" r="2.65" fill="rgb(255, 234, 204)" fill-opacity="0.316"/><circle cx="2.14" r="2.04" fill="rgb(255, 255, 255)" fill-opacity="0.316"/><animateMotion dur="1.10s" repeatCount="indefinite" begin="-0.11s" path="M 200 114 C 200 168 232 200 286 200" rotate="auto"/></g><g><circle cx="0.00" r="5.10" fill="rgb(255, 152, 0)"/><circle cx="0.43" r="4.49" fill="rgb(255, 173, 51)" fill-opacity="0.316"/><circle cx="0.86" r="3.88" fill="rgb(255, 193, 102)" fill-opacity="0.316"/><circle cx="1.29" r="3.27" fill="rgb(255, 214, 153)" fill-opacity="0.316"/><circle cx="1.71" r="2.65" fill="rgb(255, 234, 204)" fill-opacity="0.316"/><circle cx="2.14" r="2.04" fill="rgb(255, 255, 255)" fill-opacity="0.316"/><animateMotion dur="1.10s" repeatCount="indefinite" begin="-0.33s" path="M 200 114 C 200 168 232 200 286 200" rotate="auto"/></g></g>
<g transform="translate(0,48)"><path id="line-sensor-wb" d="M58.2,572.0 C117.9,572.0 117.9,487.0 177.5,487.0 L257.1,487.0" fill="none" stroke="rgb(92, 107, 192)" stroke-width="2px" stroke-linecap="round" opacity="0.8"></path><g><circle cx="0.00" r="5.00" fill="rgb(92, 107, 192)"/><circle cx="0.42" r="4.40" fill="rgb(125, 137, 205)" fill-opacity="0.316"/><circle cx="0.84" r="3.80" fill="rgb(157, 166, 217)" fill-opacity="0.316"/><circle cx="1.26" r="3.20" fill="rgb(190, 196, 230)" fill-opacity="0.316"/><circle cx="1.68" r="2.60" fill="rgb(222, 225, 242)" fill-opacity="0.316"/><circle cx="2.10" r="2.00" fill="rgb(255, 255, 255)" fill-opacity="0.316"/><animateMotion dur="1.10s" repeatCount="indefinite" begin="-0.37s" rotate="auto"><mpath href="#line-sensor-wb" xlink:href="#line-sensor-wb"/></animateMotion></g><g><circle cx="0.00" r="5.00" fill="rgb(92, 107, 192)"/><circle cx="0.42" r="4.40" fill="rgb(125, 137, 205)" fill-opacity="0.316"/><circle cx="0.84" r="3.80" fill="rgb(157, 166, 217)" fill-opacity="0.316"/><circle cx="1.26" r="3.20" fill="rgb(190, 196, 230)" fill-opacity="0.316"/><circle cx="1.68" r="2.60" fill="rgb(222, 225, 242)" fill-opacity="0.316"/><circle cx="2.10" r="2.00" fill="rgb(255, 255, 255)" fill-opacity="0.316"/><animateMotion dur="1.10s" repeatCount="indefinite" begin="-0.64s" rotate="auto"><mpath href="#line-sensor-wb" xlink:href="#line-sensor-wb"/></animateMotion></g><g><circle cx="0.00" r="5.00" fill="rgb(92, 107, 192)"/><circle cx="0.42" r="4.40" fill="rgb(125, 137, 205)" fill-opacity="0.316"/><circle cx="0.84" r="3.80" fill="rgb(157, 166, 217)" fill-opacity="0.316"/><circle cx="1.26" r="3.20" fill="rgb(190, 196, 230)" fill-opacity="0.316"/><circle cx="1.68" r="2.60" fill="rgb(222, 225, 242)" fill-opacity="0.316"/><circle cx="2.10" r="2.00" fill="rgb(255, 255, 255)" fill-opacity="0.316"/><animateMotion dur="1.10s" repeatCount="indefinite" begin="-0.92s" rotate="auto"><mpath href="#line-sensor-wb" xlink:href="#line-sensor-wb"/></animateMotion></g><g><circle cx="0.00" r="5.00" fill="rgb(92, 107, 192)"/><circle cx="0.42" r="4.40" fill="rgb(125, 137, 205)" fill-opacity="0.316"/><circle cx="0.84" r="3.80" fill="rgb(157, 166, 217)" fill-opacity="0.316"/><circle cx="1.26" r="3.20" fill="rgb(190, 196, 230)" fill-opacity="0.316"/><circle cx="1.68" r="2.60" fill="rgb(222, 225, 242)" fill-opacity="0.316"/><circle cx="2.10" r="2.00" fill="rgb(255, 255, 255)" fill-opacity="0.316"/><animateMotion dur="1.10s" repeatCount="indefinite" begin="-1.19s" rotate="auto"><mpath href="#line-sensor-wb" xlink:href="#line-sensor-wb"/></animateMotion></g><path id="line-sensor-c1" d="M58.2,572.0 C117.9,572.0 117.9,521.0 177.5,521.0 L257.1,521.0" fill="none" stroke="rgb(126, 87, 194)" stroke-width="2px" stroke-linecap="round" opacity="0.8"><animate attributeName="d" values="M58.2,572.0 C117.9,572.0 117.9,521.0 177.5,521.0 L257.1,521.0;M58.2,572.0 C117.9,572.0 117.9,521.0 177.5,521.0 L257.1,521.0;M58.2,572.0 C117.9,572.0 117.9,521.0 177.5,521.0 L257.1,521.0;M58.2,572.0 C117.9,572.0 117.9,521.0 177.5,521.0 L257.1,521.0;M58.2,572.0 C117.9,572.0 117.9,555.0 177.5,555.0 L257.1,555.0;M58.2,572.0 C117.9,572.0 117.9,555.0 177.5,555.0 L257.1,555.0;M58.2,572.0 C117.9,572.0 117.9,521.0 177.5,521.0 L257.1,521.0;M58.2,572.0 C117.9,572.0 117.9,521.0 177.5,521.0 L257.1,521.0" keyTimes="0.0000;0.2083;0.2583;0.5417;0.5917;0.8750;0.9250;1.0000" calcMode="spline" keySplines="0 0 1 1;.4 0 .2 1;0 0 1 1;.4 0 .2 1;0 0 1 1;.4 0 .2 1;0 0 1 1" dur="12s" repeatCount="indefinite"/></path><g><circle cx="0.00" r="5.00" fill="rgb(126, 87, 194)"/><circle cx="0.42" r="4.40" fill="rgb(152, 121, 206)" fill-opacity="0.316"/><circle cx="0.84" r="3.80" fill="rgb(178, 154, 218)" fill-opacity="0.316"/><circle cx="1.26" r="3.20" fill="rgb(203, 188, 231)" fill-opacity="0.316"/><circle cx="1.68" r="2.60" fill="rgb(229, 221, 243)" fill-opacity="0.316"/><circle cx="2.10" r="2.00" fill="rgb(255, 255, 255)" fill-opacity="0.316"/><animateMotion dur="1.10s" repeatCount="indefinite" begin="-0.37s" rotate="auto"><mpath href="#line-sensor-c1" xlink:href="#line-sensor-c1"/></animateMotion></g><g><circle cx="0.00" r="5.00" fill="rgb(126, 87, 194)"/><circle cx="0.42" r="4.40" fill="rgb(152, 121, 206)" fill-opacity="0.316"/><circle cx="0.84" r="3.80" fill="rgb(178, 154, 218)" fill-opacity="0.316"/><circle cx="1.26" r="3.20" fill="rgb(203, 188, 231)" fill-opacity="0.316"/><circle cx="1.68" r="2.60" fill="rgb(229, 221, 243)" fill-opacity="0.316"/><circle cx="2.10" r="2.00" fill="rgb(255, 255, 255)" fill-opacity="0.316"/><animateMotion dur="1.10s" repeatCount="indefinite" begin="-0.73s" rotate="auto"><mpath href="#line-sensor-c1" xlink:href="#line-sensor-c1"/></animateMotion></g><g><circle cx="0.00" r="5.00" fill="rgb(126, 87, 194)"/><circle cx="0.42" r="4.40" fill="rgb(152, 121, 206)" fill-opacity="0.316"/><circle cx="0.84" r="3.80" fill="rgb(178, 154, 218)" fill-opacity="0.316"/><circle cx="1.26" r="3.20" fill="rgb(203, 188, 231)" fill-opacity="0.316"/><circle cx="1.68" r="2.60" fill="rgb(229, 221, 243)" fill-opacity="0.316"/><circle cx="2.10" r="2.00" fill="rgb(255, 255, 255)" fill-opacity="0.316"/><animateMotion dur="1.10s" repeatCount="indefinite" begin="-1.10s" rotate="auto"><mpath href="#line-sensor-c1" xlink:href="#line-sensor-c1"/></animateMotion></g><path id="line-sensor-c2" d="M58.2,572.0 C117.9,572.0 117.9,555.0 177.5,555.0 L257.1,555.0" fill="none" stroke="rgb(38, 166, 154)" stroke-width="2px" stroke-linecap="round" opacity="0.8"><animate attributeName="d" values="M58.2,572.0 C117.9,572.0 117.9,555.0 177.5,555.0 L257.1,555.0;M58.2,572.0 C117.9,572.0 117.9,555.0 177.5,555.0 L257.1,555.0;M58.2,572.0 C117.9,572.0 117.9,555.0 177.5,555.0 L257.1,555.0;M58.2,572.0 C117.9,572.0 117.9,555.0 177.5,555.0 L257.1,555.0;M58.2,572.0 C117.9,572.0 117.9,521.0 177.5,521.0 L257.1,521.0;M58.2,572.0 C117.9,572.0 117.9,521.0 177.5,521.0 L257.1,521.0;M58.2,572.0 C117.9,572.0 117.9,555.0 177.5,555.0 L257.1,555.0;M58.2,572.0 C117.9,572.0 117.9,555.0 177.5,555.0 L257.1,555.0" keyTimes="0.0000;0.2083;0.2583;0.5417;0.5917;0.8750;0.9250;1.0000" calcMode="spline" keySplines="0 0 1 1;.4 0 .2 1;0 0 1 1;.4 0 .2 1;0 0 1 1;.4 0 .2 1;0 0 1 1" dur="12s" repeatCount="indefinite"/></path><g><circle cx="0.00" r="5.00" fill="rgb(38, 166, 154)"/><circle cx="0.42" r="4.40" fill="rgb(81, 184, 174)" fill-opacity="0.316"/><circle cx="0.84" r="3.80" fill="rgb(125, 202, 194)" fill-opacity="0.316"/><circle cx="1.26" r="3.20" fill="rgb(168, 219, 215)" fill-opacity="0.316"/><circle cx="1.68" r="2.60" fill="rgb(212, 237, 235)" fill-opacity="0.316"/><circle cx="2.10" r="2.00" fill="rgb(255, 255, 255)" fill-opacity="0.316"/><animateMotion dur="1.10s" repeatCount="indefinite" begin="-0.37s" rotate="auto"><mpath href="#line-sensor-c2" xlink:href="#line-sensor-c2"/></animateMotion></g><g><circle cx="0.00" r="5.00" fill="rgb(38, 166, 154)"/><circle cx="0.42" r="4.40" fill="rgb(81, 184, 174)" fill-opacity="0.316"/><circle cx="0.84" r="3.80" fill="rgb(125, 202, 194)" fill-opacity="0.316"/><circle cx="1.26" r="3.20" fill="rgb(168, 219, 215)" fill-opacity="0.316"/><circle cx="1.68" r="2.60" fill="rgb(212, 237, 235)" fill-opacity="0.316"/><circle cx="2.10" r="2.00" fill="rgb(255, 255, 255)" fill-opacity="0.316"/><animateMotion dur="1.10s" repeatCount="indefinite" begin="-0.73s" rotate="auto"><mpath href="#line-sensor-c2" xlink:href="#line-sensor-c2"/></animateMotion></g><g><circle cx="0.00" r="5.00" fill="rgb(38, 166, 154)"/><circle cx="0.42" r="4.40" fill="rgb(81, 184, 174)" fill-opacity="0.316"/><circle cx="0.84" r="3.80" fill="rgb(125, 202, 194)" fill-opacity="0.316"/><circle cx="1.26" r="3.20" fill="rgb(168, 219, 215)" fill-opacity="0.316"/><circle cx="1.68" r="2.60" fill="rgb(212, 237, 235)" fill-opacity="0.316"/><circle cx="2.10" r="2.00" fill="rgb(255, 255, 255)" fill-opacity="0.316"/><animateMotion dur="1.10s" repeatCount="indefinite" begin="-1.10s" rotate="auto"><mpath href="#line-sensor-c2" xlink:href="#line-sensor-c2"/></animateMotion></g><path id="line-sensor-c3" d="M58.2,572.0 C117.9,572.0 117.9,589.0 177.5,589.0 L257.1,589.0" fill="none" stroke="rgb(236, 64, 122)" stroke-width="2px" stroke-linecap="round" opacity="0.8"></path><g><circle cx="0.00" r="5.00" fill="rgb(236, 64, 122)"/><circle cx="0.42" r="4.40" fill="rgb(240, 102, 149)" fill-opacity="0.316"/><circle cx="0.84" r="3.80" fill="rgb(244, 140, 175)" fill-opacity="0.316"/><circle cx="1.26" r="3.20" fill="rgb(247, 179, 202)" fill-opacity="0.316"/><circle cx="1.68" r="2.60" fill="rgb(251, 217, 228)" fill-opacity="0.316"/><circle cx="2.10" r="2.00" fill="rgb(255, 255, 255)" fill-opacity="0.316"/><animateMotion dur="2.57s" repeatCount="indefinite" begin="-0.37s" rotate="auto"><mpath href="#line-sensor-c3" xlink:href="#line-sensor-c3"/></animateMotion></g><path id="line-sensor-c4" d="M58.2,572.0 C117.9,572.0 117.9,623.0 177.5,623.0 L257.1,623.0" fill="none" stroke="rgb(141, 110, 99)" stroke-width="2px" stroke-linecap="round" opacity="0.8"></path><g><circle cx="0.00" r="5.00" fill="rgb(141, 110, 99)"/><circle cx="0.42" r="4.40" fill="rgb(164, 139, 130)" fill-opacity="0.316"/><circle cx="0.84" r="3.80" fill="rgb(187, 168, 161)" fill-opacity="0.316"/><circle cx="1.26" r="3.20" fill="rgb(209, 197, 193)" fill-opacity="0.316"/><circle cx="1.68" r="2.60" fill="rgb(232, 226, 224)" fill-opacity="0.316"/><circle cx="2.10" r="2.00" fill="rgb(255, 255, 255)" fill-opacity="0.316"/><animateMotion dur="4.44s" repeatCount="indefinite" begin="-0.37s" rotate="auto"><mpath href="#line-sensor-c4" xlink:href="#line-sensor-c4"/></animateMotion></g><path id="line--rest-" d="M58.2,572.0 C117.9,572.0 117.9,657.0 177.5,657.0 L257.1,657.0" fill="none" stroke="rgb(125, 125, 125)" stroke-width="2px" stroke-linecap="round" opacity="0.8"></path><g><circle cx="0.00" r="5.00" fill="rgb(125, 125, 125)"/><circle cx="0.42" r="4.40" fill="rgb(151, 151, 151)" fill-opacity="0.316"/><circle cx="0.84" r="3.80" fill="rgb(177, 177, 177)" fill-opacity="0.316"/><circle cx="1.26" r="3.20" fill="rgb(203, 203, 203)" fill-opacity="0.316"/><circle cx="1.68" r="2.60" fill="rgb(229, 229, 229)" fill-opacity="0.316"/><circle cx="2.10" r="2.00" fill="rgb(255, 255, 255)" fill-opacity="0.316"/><animateMotion dur="4.50s" repeatCount="indefinite" begin="-0.37s" rotate="auto"><mpath href="#line--rest-" xlink:href="#line--rest-"/></animateMotion></g></g>
<circle cx="220" cy="134.8" r="59.4" fill="rgb(29, 30, 33)" stroke="rgb(255, 152, 0)" stroke-width="2"/>
<g transform="translate(201.9,109.2) scale(1.5091)"><path d="M3.55 19.09L4.96 20.5L6.76 18.71L5.34 17.29M12 6C8.69 6 6 8.69 6 12S8.69 18 12 18 18 15.31 18 12C18 8.68 15.31 6 12 6M20 13H23V11H20M17.24 18.71L19.04 20.5L20.45 19.09L18.66 17.29M20.45 5L19.04 3.6L17.24 5.39L18.66 6.81M13 1H11V4H13M6.76 5.39L4.96 3.6L3.55 5L5.34 6.81L6.76 5.39M1 13H4V11H1M13 20H11V23H13" fill="rgb(255, 152, 0)"/></g>
<text x="220" y="157.9" text-anchor="middle" font-size="12.7" font-weight="500" fill="rgb(227, 227, 227)" font-family="Roboto, system-ui, sans-serif" textLength="54.2" lengthAdjust="spacingAndGlyphs">11,00 kW</text>
<text x="220" y="63.2" text-anchor="middle" font-size="12.0" font-weight="400" fill="rgb(227, 227, 227)" font-family="Roboto, system-ui, sans-serif" textLength="14.4" lengthAdjust="spacingAndGlyphs">PV</text>
<circle cx="80.8" cy="274" r="59.4" fill="rgb(29, 30, 33)" stroke="rgb(131, 83, 209)" stroke-width="2"/>
<g transform="translate(62.7,248.4) scale(1.5091)"><path d="M8.28,5.45L6.5,4.55L7.76,2H16.23L17.5,4.55L15.72,5.44L15,4H9L8.28,5.45M18.62,8H14.09L13.3,5H10.7L9.91,8H5.38L4.1,10.55L5.89,11.44L6.62,10H17.38L18.1,11.45L19.89,10.56L18.62,8M17.77,22H15.7L15.46,21.1L12,15.9L8.53,21.1L8.3,22H6.23L9.12,11H11.19L10.83,12.35L12,14.1L13.16,12.35L12.81,11H14.88L17.77,22M11.4,15L10.5,13.65L9.32,18.13L11.4,15M14.68,18.12L13.5,13.64L12.6,15L14.68,18.12Z" fill="rgb(131, 83, 209)"/></g>
<text x="80.8" y="297.1" text-anchor="middle" font-size="12.7" font-weight="500" fill="rgb(227, 227, 227)" font-family="Roboto, system-ui, sans-serif" textLength="46.9" lengthAdjust="spacingAndGlyphs">0,30 kW</text>
<text x="80.8" y="354.1" text-anchor="middle" font-size="12.0" font-weight="400" fill="rgb(227, 227, 227)" font-family="Roboto, system-ui, sans-serif" textLength="25.7" lengthAdjust="spacingAndGlyphs">Netz</text><text x="80.8" y="369.1" text-anchor="middle" font-size="12.0" font-weight="400" fill="rgb(227, 227, 227)" font-family="Roboto, system-ui, sans-serif" textLength="66.8" lengthAdjust="spacingAndGlyphs">Einspeisung</text>
<circle cx="359.2" cy="274" r="59.4" fill="rgb(29, 30, 33)" stroke="rgba(0, 0, 0, 0)" stroke-width="2"/>
<g transform="translate(293.3,208.1) scale(1.3175)"><g transform="rotate(-90 50 50)"><circle cx="50" cy="50" r="45.83" fill="none" stroke="rgb(125, 125, 125)" stroke-width="8.35" stroke-dasharray="4.06 283.87" stroke-dashoffset="-281.43" stroke-linecap="butt"></circle><g transform="translate(50 50)"><g><animateTransform attributeName="transform" type="scale" values="1.000 1.000;1.000 1.000;0.803 0.803;0.803 0.803;1.000 1.000" keyTimes="0.0000;0.8750;0.9000;0.9750;1.0000" calcMode="spline" keySplines=".4 0 .2 1;.4 0 .2 1;.4 0 .2 1;.4 0 .2 1" dur="12s" repeatCount="indefinite"/><g transform="translate(-50 -50)"><circle cx="50" cy="50" r="45.83" fill="none" stroke="rgb(126, 87, 194)" stroke-width="8.35" stroke-dasharray="70.34 217.59" stroke-dashoffset="-102.55" stroke-linecap="butt"><animate attributeName="stroke-dasharray" values="70.34 217.59;70.34 217.59;97.40 190.53;97.40 190.53;56.81 231.12;56.81 231.12;70.34 217.59" keyTimes="0.0000;0.2083;0.3333;0.5417;0.6667;0.8750;1.0000" calcMode="spline" keySplines="0 0 1 1;.4 0 .2 1;0 0 1 1;.4 0 .2 1;0 0 1 1;.4 0 .2 1" dur="12s" repeatCount="indefinite"/><animate attributeName="stroke-dashoffset" values="-102.55;-102.55;-102.55;-102.55;-183.45;-183.45;-102.55" keyTimes="0.0000;0.2083;0.3333;0.5417;0.6667;0.8750;1.0000" calcMode="spline" keySplines="0 0 1 1;.4 0 .2 1;0 0 1 1;.4 0 .2 1;0 0 1 1;.4 0 .2 1" dur="12s" repeatCount="indefinite"/></circle></g></g></g><g transform="translate(50 50)"><g><animateTransform attributeName="transform" type="scale" values="1.000 1.000;1.000 1.000;0.803 0.803;0.803 0.803;1.000 1.000;1.000 1.000" keyTimes="0.0000;0.5417;0.5667;0.6417;0.6667;1.0000" calcMode="spline" keySplines=".4 0 .2 1;.4 0 .2 1;.4 0 .2 1;.4 0 .2 1;.4 0 .2 1" dur="12s" repeatCount="indefinite"/><g transform="translate(-50 -50)"><circle cx="50" cy="50" r="45.83" fill="none" stroke="rgb(38, 166, 154)" stroke-width="8.35" stroke-dasharray="64.93 223.00" stroke-dashoffset="-175.34" stroke-linecap="butt"><animate attributeName="stroke-dasharray" values="64.93 223.00;64.93 223.00;37.88 250.05;37.88 250.05;78.46 209.47;78.46 209.47;64.93 223.00" keyTimes="0.0000;0.2083;0.3333;0.5417;0.6667;0.8750;1.0000" calcMode="spline" keySplines="0 0 1 1;.4 0 .2 1;0 0 1 1;.4 0 .2 1;0 0 1 1;.4 0 .2 1" dur="12s" repeatCount="indefinite"/><animate attributeName="stroke-dashoffset" values="-175.34;-175.34;-202.39;-202.39;-102.55;-102.55;-175.34" keyTimes="0.0000;0.2083;0.3333;0.5417;0.6667;0.8750;1.0000" calcMode="spline" keySplines="0 0 1 1;.4 0 .2 1;0 0 1 1;.4 0 .2 1;0 0 1 1;.4 0 .2 1" dur="12s" repeatCount="indefinite"/></circle></g></g></g><circle cx="50" cy="50" r="45.83" fill="none" stroke="rgb(236, 64, 122)" stroke-width="8.35" stroke-dasharray="24.35 263.58" stroke-dashoffset="-242.71" stroke-linecap="butt"></circle><circle cx="50" cy="50" r="45.83" fill="none" stroke="rgb(141, 110, 99)" stroke-width="8.35" stroke-dasharray="9.47 278.46" stroke-dashoffset="-269.51" stroke-linecap="butt"></circle><circle cx="50" cy="50" r="45.83" fill="none" stroke="rgb(92, 107, 192)" stroke-width="8.35" stroke-dasharray="100.10 187.83" stroke-dashoffset="0.00" stroke-linecap="butt"></circle></g></g>
<g transform="translate(341,248.4) scale(1.5091)"><path d="M10,20V14H14V20H19V12H22L12,3L2,12H5V20H10Z" fill="rgb(3, 169, 244)"/></g>
<text x="359.2" y="297.1" text-anchor="middle" font-size="12.7" font-weight="500" fill="rgb(227, 227, 227)" font-family="Roboto, system-ui, sans-serif" textLength="54.2" lengthAdjust="spacingAndGlyphs">10,10 kW</text>
<text x="359.2" y="354.1" text-anchor="middle" font-size="12.0" font-weight="400" fill="rgb(227, 227, 227)" font-family="Roboto, system-ui, sans-serif" textLength="28.6" lengthAdjust="spacingAndGlyphs">Haus</text>
<circle cx="220" cy="413.2" r="59.4" fill="rgb(29, 30, 33)" stroke="rgb(240, 98, 146)" stroke-width="2"/>
<clipPath id="socj882s"><circle cx="220" cy="413.2" r="59.4"/></clipPath><rect clip-path="url(#socj882s)" x="161.6" y="392.2" width="116.8" height="79.4" fill="rgb(186, 196, 59)" opacity="0.22"/>
<g transform="translate(201.9,395) scale(1.5091)"><path d="M16,10H8V6H16M16.67,4H15V2H9V4H7.33A1.33,1.33 0 0,0 6,5.33V20.67C6,21.4 6.6,22 7.33,22H16.67A1.33,1.33 0 0,0 18,20.67V5.33C18,4.6 17.4,4 16.67,4Z" fill="rgb(240, 98, 146)"/></g>
<text x="220" y="391.5" text-anchor="middle" font-size="12.7" font-weight="500" fill="rgb(227, 227, 227)" font-family="Roboto, system-ui, sans-serif" textLength="28.4" lengthAdjust="spacingAndGlyphs">68 %</text>
<text x="220" y="443.7" text-anchor="middle" font-size="12.7" font-weight="500" fill="rgb(227, 227, 227)" font-family="Roboto, system-ui, sans-serif" textLength="46.9" lengthAdjust="spacingAndGlyphs">0,60 kW</text>
<text x="220" y="493.2" text-anchor="middle" font-size="12.0" font-weight="400" fill="rgb(227, 227, 227)" font-family="Roboto, system-ui, sans-serif" textLength="44.4" lengthAdjust="spacingAndGlyphs">Batterie</text><text x="220" y="508.2" text-anchor="middle" font-size="12.0" font-weight="400" fill="rgb(227, 227, 227)" font-family="Roboto, system-ui, sans-serif" textLength="21.3" lengthAdjust="spacingAndGlyphs">lädt</text>
<text x="16" y="36.5" text-anchor="start" font-size="20.0" font-weight="400" fill="rgb(227, 227, 227)" font-family="Roboto, system-ui, sans-serif" textLength="68.3" lengthAdjust="spacingAndGlyphs">Energie</text>
<rect x="167.1" y="12" width="50.1" height="36.0" rx="18.0" ry="18.0" fill="rgba(0, 0, 0, 0)" stroke="rgb(3, 169, 244)" stroke-width="1"/>
<text x="192.2" y="33.7" text-anchor="middle" font-size="12.0" font-weight="500" fill="rgb(3, 169, 244)" font-family="Roboto, system-ui, sans-serif" textLength="24.1" lengthAdjust="spacingAndGlyphs">Jetzt</text>
<rect x="225.3" y="12" width="69.9" height="36.0" rx="18.0" ry="18.0" fill="rgba(0, 0, 0, 0)" stroke="rgba(160, 160, 160, 0.3)" stroke-width="1"/>
<text x="260.2" y="33.7" text-anchor="middle" font-size="12.0" font-weight="400" fill="rgb(155, 155, 155)" font-family="Roboto, system-ui, sans-serif" textLength="43.9" lengthAdjust="spacingAndGlyphs">Ø 2 min</text>
<rect x="303.2" y="12" width="76.8" height="36.0" rx="18.0" ry="18.0" fill="rgba(0, 0, 0, 0)" stroke="rgba(160, 160, 160, 0.3)" stroke-width="1"/>
<text x="341.6" y="33.7" text-anchor="middle" font-size="12.0" font-weight="400" fill="rgb(155, 155, 155)" font-family="Roboto, system-ui, sans-serif" textLength="50.8" lengthAdjust="spacingAndGlyphs">Ø 15 min</text>
<rect x="388" y="12" width="36.0" height="36.0" rx="18.0" ry="18.0" fill="rgba(0, 0, 0, 0)" stroke="rgba(160, 160, 160, 0.3)" stroke-width="1"/>
<g transform="translate(397,21) scale(0.7500)"><path d="M15,19.88C15.04,20.18 14.94,20.5 14.71,20.71C14.32,21.1 13.69,21.1 13.3,20.71L9.29,16.7C9.06,16.47 8.96,16.16 9,15.87V10.75L4.21,4.62C3.87,4.19 3.95,3.56 4.38,3.22C4.57,3.08 4.78,3 5,3V3H19V3C19.22,3 19.43,3.08 19.62,3.22C20.05,3.56 20.13,4.19 19.79,4.62L15,10.75V19.88M7.04,5L11,10.06V15.58L13,17.58V10.05L16.96,5H7.04Z" fill="rgb(155, 155, 155)"/></g>
<g><g transform="translate(253.1,520.8) scale(1.1829)"><circle cx="12" cy="12" r="11.2" fill="none" stroke="rgb(92, 107, 192)" stroke-width="1" stroke-opacity="0.22"/><circle cx="12" cy="12" r="11.2" fill="none" stroke="rgb(92, 107, 192)" stroke-width="1" stroke-opacity="1" stroke-dasharray="56.30 70.37" stroke-linecap="round" transform="rotate(-90 12 12)"/></g><g transform="translate(257.1,524.8) scale(0.8496)"><path d="M19.77,7.23L19.78,7.22L16.06,3.5L15,4.56L17.11,6.67C16.17,7.03 15.5,7.93 15.5,9A2.5,2.5 0 0,0 18,11.5C18.36,11.5 18.69,11.42 19,11.29V18.5A1,1 0 0,1 18,19.5A1,1 0 0,1 17,18.5V14A2,2 0 0,0 15,12H14V5A2,2 0 0,0 12,3H6A2,2 0 0,0 4,5V21H14V13.5H15.5V18.5A2.5,2.5 0 0,0 18,21A2.5,2.5 0 0,0 20.5,18.5V9C20.5,8.31 20.22,7.68 19.77,7.23M18,10A1,1 0 0,1 17,9A1,1 0 0,1 18,8A1,1 0 0,1 19,9A1,1 0 0,1 18,10M8,18V13.5H6L10,6V11H12L8,18Z" fill="rgb(92, 107, 192)"/></g><text x="283.5" y="538.7" text-anchor="start" font-size="12.0" font-weight="400" fill="rgb(227, 227, 227)" font-family="Roboto, system-ui, sans-serif" textLength="44.7" lengthAdjust="spacingAndGlyphs">Wallbox</text><text x="424" y="538.7" text-anchor="end" font-size="12.0" font-weight="500" fill="rgb(227, 227, 227)" font-family="Roboto, system-ui, sans-serif" textLength="44.2" lengthAdjust="spacingAndGlyphs">3,70 kW</text></g>
<g><animateTransform attributeName="transform" type="translate" values="0 0.0;0 0.0;0 0.0;0 0.0;0 34.0;0 34.0;0 0.0;0 0.0" keyTimes="0.0000;0.2083;0.2583;0.5417;0.5917;0.8750;0.9250;1.0000" calcMode="spline" keySplines="0 0 1 1;.4 0 .2 1;0 0 1 1;.4 0 .2 1;0 0 1 1;.4 0 .2 1;0 0 1 1" dur="12s" repeatCount="indefinite"/><g transform="translate(257.1,558.8) scale(0.8496)"><path d="M8.5 4.5L5.4 9.5L8.5 14.7L5.2 20.5L3.4 19.6L6.1 14.7L3 9.5L6.7 3.6L8.5 4.5M14.7 4.4L11.6 9.5L14.7 14.5L11.4 20.3L9.6 19.4L12.3 14.5L9.2 9.5L12.9 3.5L14.7 4.4M21 4.4L17.9 9.5L21 14.5L17.7 20.3L15.9 19.4L18.6 14.5L15.5 9.5L19.2 3.5L21 4.4" fill="rgb(126, 87, 194)"/></g><text x="283.5" y="572.7" text-anchor="start" font-size="12.0" font-weight="400" fill="rgb(227, 227, 227)" font-family="Roboto, system-ui, sans-serif" textLength="80.4" lengthAdjust="spacingAndGlyphs">Wärmepumpe</text><text x="424" y="572.7" text-anchor="end" font-size="12.0" font-weight="500" fill="rgb(227, 227, 227)" font-family="Roboto, system-ui, sans-serif" textLength="44.2" lengthAdjust="spacingAndGlyphs">2,60 kW<animate attributeName="opacity" values="1;1;0;0;0;0;1;1" keyTimes="0.0000;0.2083;0.2583;0.5417;0.5917;0.8750;0.9250;1.0000" calcMode="spline" keySplines="0 0 1 1;.4 0 .2 1;0 0 1 1;.4 0 .2 1;0 0 1 1;.4 0 .2 1;0 0 1 1" dur="12s" repeatCount="indefinite"/></text><text x="424" y="572.7" text-anchor="end" font-size="12.0" font-weight="500" fill="rgb(227, 227, 227)" font-family="Roboto, system-ui, sans-serif" textLength="44.2" lengthAdjust="spacingAndGlyphs" opacity="0">3,60 kW<animate attributeName="opacity" values="0;0;1;1;0;0;0;0" keyTimes="0.0000;0.2083;0.2583;0.5417;0.5917;0.8750;0.9250;1.0000" calcMode="spline" keySplines="0 0 1 1;.4 0 .2 1;0 0 1 1;.4 0 .2 1;0 0 1 1;.4 0 .2 1;0 0 1 1" dur="12s" repeatCount="indefinite"/></text><text x="424" y="572.7" text-anchor="end" font-size="12.0" font-weight="500" fill="rgb(227, 227, 227)" font-family="Roboto, system-ui, sans-serif" textLength="44.2" lengthAdjust="spacingAndGlyphs" opacity="0">2,10 kW<animate attributeName="opacity" values="0;0;0;0;1;1;0;0" keyTimes="0.0000;0.2083;0.2583;0.5417;0.5917;0.8750;0.9250;1.0000" calcMode="spline" keySplines="0 0 1 1;.4 0 .2 1;0 0 1 1;.4 0 .2 1;0 0 1 1;.4 0 .2 1;0 0 1 1" dur="12s" repeatCount="indefinite"/></text></g>
<g><animateTransform attributeName="transform" type="translate" values="0 0.0;0 0.0;0 0.0;0 0.0;0 -34.0;0 -34.0;0 0.0;0 0.0" keyTimes="0.0000;0.2083;0.2583;0.5417;0.5917;0.8750;0.9250;1.0000" calcMode="spline" keySplines="0 0 1 1;.4 0 .2 1;0 0 1 1;.4 0 .2 1;0 0 1 1;.4 0 .2 1;0 0 1 1" dur="12s" repeatCount="indefinite"/><g transform="translate(257.1,592.8) scale(0.8496)"><path d="M14.83,11.17C16.39,12.73 16.39,15.27 14.83,16.83C13.27,18.39 10.73,18.39 9.17,16.83L14.83,11.17M6,2H18A2,2 0 0,1 20,4V20A2,2 0 0,1 18,22H6A2,2 0 0,1 4,20V4A2,2 0 0,1 6,2M7,4A1,1 0 0,0 6,5A1,1 0 0,0 7,6A1,1 0 0,0 8,5A1,1 0 0,0 7,4M10,4A1,1 0 0,0 9,5A1,1 0 0,0 10,6A1,1 0 0,0 11,5A1,1 0 0,0 10,4M12,8A6,6 0 0,0 6,14A6,6 0 0,0 12,20A6,6 0 0,0 18,14A6,6 0 0,0 12,8Z" fill="rgb(38, 166, 154)"/></g><text x="283.5" y="606.7" text-anchor="start" font-size="12.0" font-weight="400" fill="rgb(227, 227, 227)" font-family="Roboto, system-ui, sans-serif" textLength="90.3" lengthAdjust="spacingAndGlyphs">Waschmaschine</text><text x="424" y="606.7" text-anchor="end" font-size="12.0" font-weight="500" fill="rgb(227, 227, 227)" font-family="Roboto, system-ui, sans-serif" textLength="44.2" lengthAdjust="spacingAndGlyphs">2,40 kW<animate attributeName="opacity" values="1;1;0;0;0;0;1;1" keyTimes="0.0000;0.2083;0.2583;0.5417;0.5917;0.8750;0.9250;1.0000" calcMode="spline" keySplines="0 0 1 1;.4 0 .2 1;0 0 1 1;.4 0 .2 1;0 0 1 1;.4 0 .2 1;0 0 1 1" dur="12s" repeatCount="indefinite"/></text><text x="424" y="606.7" text-anchor="end" font-size="12.0" font-weight="500" fill="rgb(227, 227, 227)" font-family="Roboto, system-ui, sans-serif" textLength="44.2" lengthAdjust="spacingAndGlyphs" opacity="0">1,40 kW<animate attributeName="opacity" values="0;0;1;1;0;0;0;0" keyTimes="0.0000;0.2083;0.2583;0.5417;0.5917;0.8750;0.9250;1.0000" calcMode="spline" keySplines="0 0 1 1;.4 0 .2 1;0 0 1 1;.4 0 .2 1;0 0 1 1;.4 0 .2 1;0 0 1 1" dur="12s" repeatCount="indefinite"/></text><text x="424" y="606.7" text-anchor="end" font-size="12.0" font-weight="500" fill="rgb(227, 227, 227)" font-family="Roboto, system-ui, sans-serif" textLength="44.2" lengthAdjust="spacingAndGlyphs" opacity="0">2,90 kW<animate attributeName="opacity" values="0;0;0;0;1;1;0;0" keyTimes="0.0000;0.2083;0.2583;0.5417;0.5917;0.8750;0.9250;1.0000" calcMode="spline" keySplines="0 0 1 1;.4 0 .2 1;0 0 1 1;.4 0 .2 1;0 0 1 1;.4 0 .2 1;0 0 1 1" dur="12s" repeatCount="indefinite"/></text></g>
<g><g transform="translate(257.1,626.8) scale(0.8496)"><path d="M6.59,0.66C8.93,-1.15 11.47,1.06 12.04,4.5C12.47,4.5 12.89,4.62 13.27,4.84C13.79,4.24 14.25,3.42 14.07,2.5C13.65,0.35 16.06,-1.39 18.35,1.58C20.16,3.92 17.95,6.46 14.5,7.03C14.5,7.46 14.39,7.89 14.16,8.27C14.76,8.78 15.58,9.24 16.5,9.06C18.63,8.64 20.38,11.04 17.41,13.34C15.07,15.15 12.53,12.94 11.96,9.5C11.53,9.5 11.11,9.37 10.74,9.15C10.22,9.75 9.75,10.58 9.93,11.5C10.35,13.64 7.94,15.39 5.65,12.42C3.83,10.07 6.05,7.53 9.5,6.97C9.5,6.54 9.63,6.12 9.85,5.74C9.25,5.23 8.43,4.76 7.5,4.94C5.37,5.36 3.62,2.96 6.59,0.66M5,16H7A2,2 0 0,1 9,18V24H7V22H5V24H3V18A2,2 0 0,1 5,16M5,18V20H7V18H5M12.93,16H15L12.07,24H10L12.93,16M18,16H21V18H18V22H21V24H18A2,2 0 0,1 16,22V18A2,2 0 0,1 18,16Z" fill="rgb(236, 64, 122)"/></g><text x="283.5" y="640.7" text-anchor="start" font-size="12.0" font-weight="400" fill="rgb(227, 227, 227)" font-family="Roboto, system-ui, sans-serif" textLength="31.2" lengthAdjust="spacingAndGlyphs">Klima</text><text x="424" y="640.7" text-anchor="end" font-size="12.0" font-weight="500" fill="rgb(227, 227, 227)" font-family="Roboto, system-ui, sans-serif" textLength="44.2" lengthAdjust="spacingAndGlyphs">0,90 kW</text></g>
<g><g transform="translate(257.1,660.8) scale(0.8496)"><path d="M9,21V22H7V21A2,2 0 0,1 5,19V4A2,2 0 0,1 7,2H17A2,2 0 0,1 19,4V19A2,2 0 0,1 17,21V22H15V21H9M7,4V9H17V4H7M7,19H17V11H7V19M8,12H10V15H8V12M8,6H10V8H8V6Z" fill="rgb(141, 110, 99)"/></g><text x="283.5" y="674.7" text-anchor="start" font-size="12.0" font-weight="400" fill="rgb(227, 227, 227)" font-family="Roboto, system-ui, sans-serif" textLength="75.9" lengthAdjust="spacingAndGlyphs">Kühlschränke</text><text x="424" y="674.7" text-anchor="end" font-size="12.0" font-weight="500" fill="rgb(227, 227, 227)" font-family="Roboto, system-ui, sans-serif" textLength="44.2" lengthAdjust="spacingAndGlyphs">0,35 kW</text></g>
<g><circle cx="267.3" cy="705" r="5" fill="rgb(125, 125, 125)"/><text x="283.5" y="708.7" text-anchor="start" font-size="12.0" font-weight="400" fill="rgb(155, 155, 155)" font-family="Roboto, system-ui, sans-serif" textLength="24.1" lengthAdjust="spacingAndGlyphs">Rest</text><text x="424" y="708.7" text-anchor="end" font-size="12.0" font-weight="500" fill="rgb(155, 155, 155)" font-family="Roboto, system-ui, sans-serif" textLength="44.2" lengthAdjust="spacingAndGlyphs">0,15 kW</text></g>
<g transform="translate(16,601.9) scale(1.5091)"><path d="M10,20V14H14V20H19V12H22L12,3L2,12H5V20H10Z" fill="rgb(3, 169, 244)"/></g>
</svg>
