<svg xmlns="http://www.w3.org/2000/svg" xmlns:xlink="http://www.w3.org/1999/xlink" width="660" height="456" viewBox="0 0 660 456" role="img" aria-label="EnerLens Card">
<rect x="0" y="0" width="660.0" height="456.0" rx="12" fill="rgb(255, 255, 255)"/>
<g transform="translate(24,78) scale(0.8000)"><path d="M200,114 C200,168 232,200 286,200" fill="none" stroke="rgb(255, 152, 0)" stroke-width="3.75px" stroke-linecap="round" opacity="0.8"/><path d="M200,114 C200,168 168,200 114,200" fill="none" stroke="rgb(131, 83, 209)" stroke-width="3.75px" stroke-linecap="round" opacity="0.8"/><path d="M200,114 L200,286" fill="none" stroke="rgb(240, 98, 146)" stroke-width="3.75px" stroke-linecap="round" opacity="0.8"/><path d="M114,200 L286,200" fill="none" stroke="rgba(127, 127, 127, 0.3)" stroke-width="3.75px" stroke-linecap="round" opacity="1"/><path d="M114,200 C168,200 200,232 200,286" fill="none" stroke="rgba(127, 127, 127, 0.3)" stroke-width="3.75px" stroke-linecap="round" opacity="1"/><path d="M200,286 C200,232 232,200 286,200" fill="none" stroke="rgba(127, 127, 127, 0.3)" stroke-width="3.75px" stroke-linecap="round" opacity="1"/><circle r="6.25" fill="rgb(240, 98, 146)"><animateMotion dur="1.10s" repeatCount="indefinite" begin="-0.17s" path="M 200 114 L 200 286" rotate="0"/></circle><circle r="6.25" fill="rgb(240, 98, 146)"><animateMotion dur="1.10s" repeatCount="indefinite" begin="-0.72s" path="M 200 114 L 200 286" rotate="0"/></circle><circle r="6.25" fill="rgb(131, 83, 209)"><animateMotion dur="4.50s" repeatCount="indefinite" begin="-0.17s" path="M 200 114 C 200 168 168 200 114 200" rotate="0"/></circle><circle r="6.25" fill="rgb(255, 152, 0)"><animateMotion dur="1.10s" repeatCount="indefinite" begin="-0.17s" path="M 200 114 C 200 168 232 200 286 200" rotate="0"/></circle><circle r="6.25" fill="rgb(255, 152, 0)"><animateMotion dur="1.10s" repeatCount="indefinite" begin="-0.39s" path="M 200 114 C 200 168 232 200 286 200" rotate="0"/></circle><circle r="6.25" fill="rgb(255, 152, 0)"><animateMotion dur="1.10s" repeatCount="indefinite" begin="-0.61s" path="M 200 114 C 200 168 232 200 286 200" rotate="0"/></circle><circle r="6.25" fill="rgb(255, 152, 0)"><animateMotion dur="1.10s" repeatCount="indefinite" begin="-0.83s" path="M 200 114 C 200 168 232 200 286 200" rotate="0"/></circle><circle r="6.25" fill="rgb(255, 152, 0)"><animateMotion dur="1.10s" repeatCount="indefinite" begin="-1.05s" path="M 200 114 C 200 168 232 200 286 200" rotate="0"/></circle></g>
<g transform="translate(0,48)"><path id="line-sensor-c1" d="M347.9,190.0 C387.4,190.0 387.4,123.0 426.8,123.0 L479.5,123.0" fill="none" stroke="rgb(126, 87, 194)" stroke-width="2px" stroke-linecap="round" opacity="0.45"><animate attributeName="d" values="M347.9,190.0 C387.4,190.0 387.4,123.0 426.8,123.0 L479.5,123.0;M347.9,190.0 C387.4,190.0 387.4,123.0 426.8,123.0 L479.5,123.0;M347.9,190.0 C387.4,190.0 387.4,157.0 426.8,157.0 L479.5,157.0;M347.9,190.0 C387.4,190.0 387.4,157.0 426.8,157.0 L479.5,157.0;M347.9,190.0 C387.4,190.0 387.4,123.0 426.8,123.0 L479.5,123.0" keyTimes="0.0000;0.4250;0.5000;0.9250;1.0000" dur="8s" repeatCount="indefinite" calcMode="spline" keySplines="0 0 1 1;.4 0 .2 1;0 0 1 1;.4 0 .2 1"/></path><circle r="5" fill="rgb(126, 87, 194)"><animateMotion dur="1.10s" repeatCount="indefinite" begin="-0.03s" rotate="0"><mpath href="#line-sensor-c1" xlink:href="#line-sensor-c1"/></animateMotion></circle><circle r="5" fill="rgb(126, 87, 194)"><animateMotion dur="1.10s" repeatCount="indefinite" begin="-0.40s" rotate="0"><mpath href="#line-sensor-c1" xlink:href="#line-sensor-c1"/></animateMotion></circle><circle r="5" fill="rgb(126, 87, 194)"><animateMotion dur="1.10s" repeatCount="indefinite" begin="-0.77s" rotate="0"><mpath href="#line-sensor-c1" xlink:href="#line-sensor-c1"/></animateMotion></circle><path id="line-sensor-c2" d="M347.9,190.0 C387.4,190.0 387.4,157.0 426.8,157.0 L479.5,157.0" fill="none" stroke="rgb(38, 166, 154)" stroke-width="2px" stroke-linecap="round" opacity="0.45"><animate attributeName="d" values="M347.9,190.0 C387.4,190.0 387.4,157.0 426.8,157.0 L479.5,157.0;M347.9,190.0 C387.4,190.0 387.4,157.0 426.8,157.0 L479.5,157.0;M347.9,190.0 C387.4,190.0 387.4,123.0 426.8,123.0 L479.5,123.0;M347.9,190.0 C387.4,190.0 387.4,123.0 426.8,123.0 L479.5,123.0;M347.9,190.0 C387.4,190.0 387.4,157.0 426.8,157.0 L479.5,157.0" keyTimes="0.0000;0.4250;0.5000;0.9250;1.0000" dur="8s" repeatCount="indefinite" calcMode="spline" keySplines="0 0 1 1;.4 0 .2 1;0 0 1 1;.4 0 .2 1"/></path><circle r="5" fill="rgb(38, 166, 154)"><animateMotion dur="1.10s" repeatCount="indefinite" begin="-0.03s" rotate="0"><mpath href="#line-sensor-c2" xlink:href="#line-sensor-c2"/></animateMotion></circle><circle r="5" fill="rgb(38, 166, 154)"><animateMotion dur="1.10s" repeatCount="indefinite" begin="-0.40s" rotate="0"><mpath href="#line-sensor-c2" xlink:href="#line-sensor-c2"/></animateMotion></circle><circle r="5" fill="rgb(38, 166, 154)"><animateMotion dur="1.10s" repeatCount="indefinite" begin="-0.77s" rotate="0"><mpath href="#line-sensor-c2" xlink:href="#line-sensor-c2"/></animateMotion></circle><path id="line-sensor-c3" d="M347.9,190.0 C387.4,190.0 387.4,191.0 426.8,191.0 L479.5,191.0" fill="none" stroke="rgb(236, 64, 122)" stroke-width="2px" stroke-linecap="round" opacity="0.45"></path><circle r="5" fill="rgb(236, 64, 122)"><animateMotion dur="2.57s" repeatCount="indefinite" begin="-0.03s" rotate="0"><mpath href="#line-sensor-c3" xlink:href="#line-sensor-c3"/></animateMotion></circle><path id="line-sensor-c4" d="M347.9,190.0 C387.4,190.0 387.4,225.0 426.8,225.0 L479.5,225.0" fill="none" stroke="rgb(141, 110, 99)" stroke-width="2px" stroke-linecap="round" opacity="0.45"></path><circle r="5" fill="rgb(141, 110, 99)"><animateMotion dur="4.44s" repeatCount="indefinite" begin="-0.03s" rotate="0"><mpath href="#line-sensor-c4" xlink:href="#line-sensor-c4"/></animateMotion></circle><path id="line--rest-" d="M347.9,190.0 C387.4,190.0 387.4,259.0 426.8,259.0 L479.5,259.0" fill="none" stroke="rgb(125, 125, 125)" stroke-width="2px" stroke-linecap="round" opacity="0.45"></path><circle r="5" fill="rgb(125, 125, 125)"><animateMotion dur="4.50s" repeatCount="indefinite" begin="-0.03s" rotate="0"><mpath href="#line--rest-" xlink:href="#line--rest-"/></animateMotion></circle></g>
<circle cx="184" cy="124.4" r="49.3" fill="rgb(255, 255, 255)" stroke="rgb(255, 152, 0)" stroke-width="2"/>
<g transform="translate(168.9,102.2) scale(1.2572)"></g>
<g transform="translate(168.9,102.2) scale(1.2572)"><path d="M3.55 19.09L4.96 20.5L6.76 18.71L5.34 17.29M12 6C8.69 6 6 8.69 6 12S8.69 18 12 18 18 15.31 18 12C18 8.68 15.31 6 12 6M20 13H23V11H20M17.24 18.71L19.04 20.5L20.45 19.09L18.66 17.29M20.45 5L19.04 3.6L17.24 5.39L18.66 6.81M13 1H11V4H13M6.76 5.39L4.96 3.6L3.55 5L5.34 6.81L6.76 5.39M1 13H4V11H1M13 20H11V23H13" fill="rgb(255, 152, 0)"/></g>
<text x="184" y="144.1" text-anchor="middle" font-size="12.0" font-weight="500" fill="rgb(33, 33, 33)" font-family="Roboto, system-ui, sans-serif" textLength="44.2" lengthAdjust="spacingAndGlyphs">8,50 kW</text>
<text x="184" y="62.8" text-anchor="middle" font-size="12.0" font-weight="400" fill="rgb(33, 33, 33)" font-family="Roboto, system-ui, sans-serif" textLength="14.4" lengthAdjust="spacingAndGlyphs">PV</text>
<circle cx="70.4" cy="238" r="49.3" fill="rgb(255, 255, 255)" stroke="rgb(131, 83, 209)" stroke-width="2"/>
<g transform="translate(55.3,215.8) scale(1.2572)"></g>
<g transform="translate(55.3,215.8) scale(1.2572)"><path d="M8.28,5.45L6.5,4.55L7.76,2H16.23L17.5,4.55L15.72,5.44L15,4H9L8.28,5.45M18.62,8H14.09L13.3,5H10.7L9.91,8H5.38L4.1,10.55L5.89,11.44L6.62,10H17.38L18.1,11.45L19.89,10.56L18.62,8M17.77,22H15.7L15.46,21.1L12,15.9L8.53,21.1L8.3,22H6.23L9.12,11H11.19L10.83,12.35L12,14.1L13.16,12.35L12.81,11H14.88L17.77,22M11.4,15L10.5,13.65L9.32,18.13L11.4,15M14.68,18.12L13.5,13.64L12.6,15L14.68,18.12Z" fill="rgb(131, 83, 209)"/></g>
<text x="70.4" y="257.7" text-anchor="middle" font-size="12.0" font-weight="500" fill="rgb(33, 33, 33)" font-family="Roboto, system-ui, sans-serif" textLength="44.2" lengthAdjust="spacingAndGlyphs">0,30 kW</text>
<text x="70.4" y="308" text-anchor="middle" font-size="12.0" font-weight="400" fill="rgb(33, 33, 33)" font-family="Roboto, system-ui, sans-serif" textLength="25.7" lengthAdjust="spacingAndGlyphs">Netz</text><text x="70.4" y="323" text-anchor="middle" font-size="12.0" font-weight="400" fill="rgb(33, 33, 33)" font-family="Roboto, system-ui, sans-serif" textLength="66.8" lengthAdjust="spacingAndGlyphs">Einspeisung</text>
<circle cx="297.6" cy="238" r="49.3" fill="rgb(255, 255, 255)" stroke="rgba(0, 0, 0, 0)" stroke-width="2"/>
<g transform="translate(241.8,182.2) scale(1.1159)"><circle cx="50" cy="50" r="45.07" fill="none" stroke="rgb(126, 87, 194)" stroke-width="9.86" stroke-dasharray="110.16 173.04" stroke-dashoffset="0.00" stroke-linecap="butt" transform=""><animate attributeName="stroke" values="rgb(126, 87, 194);rgb(38, 166, 154);rgb(126, 87, 194)" keyTimes="0.0000;0.4625;0.9625" calcMode="discrete" dur="8s" repeatCount="indefinite"/></circle><circle cx="50" cy="50" r="45.07" fill="none" stroke="rgb(38, 166, 154)" stroke-width="9.86" stroke-dasharray="101.68 181.51" stroke-dashoffset="-112.57" stroke-linecap="butt" transform=""><animate attributeName="stroke" values="rgb(38, 166, 154);rgb(126, 87, 194);rgb(38, 166, 154)" keyTimes="0.0000;0.4625;0.9625" calcMode="discrete" dur="8s" repeatCount="indefinite"/></circle><circle cx="50" cy="50" r="45.07" fill="none" stroke="rgb(236, 64, 122)" stroke-width="9.86" stroke-dasharray="38.13 245.06" stroke-dashoffset="-216.66" stroke-linecap="butt" transform=""></circle><circle cx="50" cy="50" r="45.07" fill="none" stroke="rgb(141, 110, 99)" stroke-width="9.86" stroke-dasharray="14.83 268.36" stroke-dashoffset="-257.20" stroke-linecap="butt" transform=""></circle><circle cx="50" cy="50" r="45.07" fill="none" stroke="rgb(125, 125, 125)" stroke-width="9.86" stroke-dasharray="6.36 276.84" stroke-dashoffset="-274.43" stroke-linecap="butt" transform=""></circle></g>
<g transform="translate(282.5,215.8) scale(1.2572)"><path d="M10,20V14H14V20H19V12H22L12,3L2,12H5V20H10Z" fill="rgb(3, 169, 244)"/></g>
<text x="297.6" y="257.7" text-anchor="middle" font-size="12.0" font-weight="500" fill="rgb(33, 33, 33)" font-family="Roboto, system-ui, sans-serif" textLength="44.2" lengthAdjust="spacingAndGlyphs">6,40 kW</text>
<text x="297.6" y="308" text-anchor="middle" font-size="12.0" font-weight="400" fill="rgb(33, 33, 33)" font-family="Roboto, system-ui, sans-serif" textLength="28.6" lengthAdjust="spacingAndGlyphs">Haus</text>
<circle cx="184" cy="351.6" r="49.3" fill="rgb(255, 255, 255)" stroke="rgb(240, 98, 146)" stroke-width="2"/>
<clipPath id="socpwa0c"><circle cx="184" cy="351.6" r="49.3"/></clipPath><rect clip-path="url(#socpwa0c)" x="135.7" y="334.2" width="96.6" height="65.7" fill="rgb(186, 196, 59)" opacity="0.22"/>
<g transform="translate(168.9,336.5) scale(1.2572)"></g>
<g transform="translate(168.9,336.5) scale(1.2572)"><path d="M16,10H8V6H16M16.67,4H15V2H9V4H7.33A1.33,1.33 0 0,0 6,5.33V20.67C6,21.4 6.6,22 7.33,22H16.67A1.33,1.33 0 0,0 18,20.67V5.33C18,4.6 17.4,4 16.67,4Z" fill="rgb(240, 98, 146)"/></g>
<text x="184" y="333" text-anchor="middle" font-size="12.0" font-weight="500" fill="rgb(33, 33, 33)" font-family="Roboto, system-ui, sans-serif" textLength="26.8" lengthAdjust="spacingAndGlyphs">68 %</text>
<text x="184" y="378.4" text-anchor="middle" font-size="12.0" font-weight="500" fill="rgb(33, 33, 33)" font-family="Roboto, system-ui, sans-serif" textLength="44.2" lengthAdjust="spacingAndGlyphs">1,80 kW</text>
<text x="184" y="421.6" text-anchor="middle" font-size="12.0" font-weight="400" fill="rgb(33, 33, 33)" font-family="Roboto, system-ui, sans-serif" textLength="44.4" lengthAdjust="spacingAndGlyphs">Batterie</text><text x="184" y="436.6" text-anchor="middle" font-size="12.0" font-weight="400" fill="rgb(33, 33, 33)" font-family="Roboto, system-ui, sans-serif" textLength="21.3" lengthAdjust="spacingAndGlyphs">lädt</text>
<text x="16" y="36.5" text-anchor="start" font-size="20.0" font-weight="400" fill="rgb(33, 33, 33)" font-family="Roboto, system-ui, sans-serif" textLength="68.3" lengthAdjust="spacingAndGlyphs">Energie</text>
<rect x="387.1" y="12" width="50.1" height="36.0" rx="18.0" ry="18.0" fill="rgba(0, 0, 0, 0)" stroke="rgb(3, 169, 244)" stroke-width="1"/>
<text x="412.2" y="33.7" text-anchor="middle" font-size="12.0" font-weight="500" fill="rgb(3, 169, 244)" font-family="Roboto, system-ui, sans-serif" textLength="24.1" lengthAdjust="spacingAndGlyphs">Jetzt</text>
<rect x="445.3" y="12" width="69.9" height="36.0" rx="18.0" ry="18.0" fill="rgba(0, 0, 0, 0)" stroke="rgba(127, 127, 127, 0.3)" stroke-width="1"/>
<text x="480.2" y="33.7" text-anchor="middle" font-size="12.0" font-weight="400" fill="rgb(114, 114, 114)" font-family="Roboto, system-ui, sans-serif" textLength="43.9" lengthAdjust="spacingAndGlyphs">Ø 5 min</text>
<rect x="523.2" y="12" width="76.8" height="36.0" rx="18.0" ry="18.0" fill="rgba(0, 0, 0, 0)" stroke="rgba(127, 127, 127, 0.3)" stroke-width="1"/>
<text x="561.6" y="33.7" text-anchor="middle" font-size="12.0" font-weight="400" fill="rgb(114, 114, 114)" font-family="Roboto, system-ui, sans-serif" textLength="50.8" lengthAdjust="spacingAndGlyphs">Ø 15 min</text>
<rect x="608" y="12" width="36.0" height="36.0" rx="18.0" ry="18.0" fill="rgba(0, 0, 0, 0)" stroke="rgba(127, 127, 127, 0.3)" stroke-width="1"/>
<g transform="translate(617,21) scale(0.7500)"><path d="M15,19.88C15.04,20.18 14.94,20.5 14.71,20.71C14.32,21.1 13.69,21.1 13.3,20.71L9.29,16.7C9.06,16.47 8.96,16.16 9,15.87V10.75L4.21,4.62C3.87,4.19 3.95,3.56 4.38,3.22C4.57,3.08 4.78,3 5,3V3H19V3C19.22,3 19.43,3.08 19.62,3.22C20.05,3.56 20.13,4.19 19.79,4.62L15,10.75V19.88M7.04,5L11,10.06V15.58L13,17.58V10.05L16.96,5H7.04Z" fill="rgb(114, 114, 114)"/></g>
<g><animateTransform attributeName="transform" type="translate" values="0 0;0 0;0 34.0;0 34.0;0 0" keyTimes="0.0000;0.4250;0.5000;0.9250;1.0000" dur="8s" repeatCount="indefinite" calcMode="spline" keySplines="0 0 1 1;.4 0 .2 1;0 0 1 1;.4 0 .2 1"/><g transform="translate(479.5,162) scale(0.7500)"><path d="M8.5 4.5L5.4 9.5L8.5 14.7L5.2 20.5L3.4 19.6L6.1 14.7L3 9.5L6.7 3.6L8.5 4.5M14.7 4.4L11.6 9.5L14.7 14.5L11.4 20.3L9.6 19.4L12.3 14.5L9.2 9.5L12.9 3.5L14.7 4.4M21 4.4L17.9 9.5L21 14.5L17.7 20.3L15.9 19.4L18.6 14.5L15.5 9.5L19.2 3.5L21 4.4" fill="rgb(126, 87, 194)"/></g><text x="503.5" y="174.7" text-anchor="start" font-size="12.0" font-weight="400" fill="rgb(33, 33, 33)" font-family="Roboto, system-ui, sans-serif" textLength="80.4" lengthAdjust="spacingAndGlyphs">Wärmepumpe</text><text x="644" y="174.7" text-anchor="end" font-size="12.0" font-weight="500" fill="rgb(33, 33, 33)" font-family="Roboto, system-ui, sans-serif" textLength="44.2" lengthAdjust="spacingAndGlyphs">2,60 kW<animate attributeName="opacity" values="1;1;0;0;1" keyTimes="0.0000;0.4250;0.5000;0.9250;1.0000" dur="8s" repeatCount="indefinite"/></text><text x="644" y="174.7" text-anchor="end" font-size="12.0" font-weight="500" fill="rgb(33, 33, 33)" font-family="Roboto, system-ui, sans-serif" textLength="44.2" lengthAdjust="spacingAndGlyphs" opacity="0">2,40 kW<animate attributeName="opacity" values="0;0;1;1;0" keyTimes="0.0000;0.4250;0.5000;0.9250;1.0000" dur="8s" repeatCount="indefinite"/></text></g>
<g><animateTransform attributeName="transform" type="translate" values="0 0;0 0;0 -34.0;0 -34.0;0 0" keyTimes="0.0000;0.4250;0.5000;0.9250;1.0000" dur="8s" repeatCount="indefinite" calcMode="spline" keySplines="0 0 1 1;.4 0 .2 1;0 0 1 1;.4 0 .2 1"/><g transform="translate(479.5,196) scale(0.7500)"><path d="M14.83,11.17C16.39,12.73 16.39,15.27 14.83,16.83C13.27,18.39 10.73,18.39 9.17,16.83L14.83,11.17M6,2H18A2,2 0 0,1 20,4V20A2,2 0 0,1 18,22H6A2,2 0 0,1 4,20V4A2,2 0 0,1 6,2M7,4A1,1 0 0,0 6,5A1,1 0 0,0 7,6A1,1 0 0,0 8,5A1,1 0 0,0 7,4M10,4A1,1 0 0,0 9,5A1,1 0 0,0 10,6A1,1 0 0,0 11,5A1,1 0 0,0 10,4M12,8A6,6 0 0,0 6,14A6,6 0 0,0 12,20A6,6 0 0,0 18,14A6,6 0 0,0 12,8Z" fill="rgb(38, 166, 154)"/></g><text x="503.5" y="208.7" text-anchor="start" font-size="12.0" font-weight="400" fill="rgb(33, 33, 33)" font-family="Roboto, system-ui, sans-serif" textLength="90.3" lengthAdjust="spacingAndGlyphs">Waschmaschine</text><text x="644" y="208.7" text-anchor="end" font-size="12.0" font-weight="500" fill="rgb(33, 33, 33)" font-family="Roboto, system-ui, sans-serif" textLength="44.2" lengthAdjust="spacingAndGlyphs">2,40 kW<animate attributeName="opacity" values="1;1;0;0;1" keyTimes="0.0000;0.4250;0.5000;0.9250;1.0000" dur="8s" repeatCount="indefinite"/></text><text x="644" y="208.7" text-anchor="end" font-size="12.0" font-weight="500" fill="rgb(33, 33, 33)" font-family="Roboto, system-ui, sans-serif" textLength="44.2" lengthAdjust="spacingAndGlyphs" opacity="0">2,60 kW<animate attributeName="opacity" values="0;0;1;1;0" keyTimes="0.0000;0.4250;0.5000;0.9250;1.0000" dur="8s" repeatCount="indefinite"/></text></g>
<g><g transform="translate(479.5,230) scale(0.7500)"><path d="M6.59,0.66C8.93,-1.15 11.47,1.06 12.04,4.5C12.47,4.5 12.89,4.62 13.27,4.84C13.79,4.24 14.25,3.42 14.07,2.5C13.65,0.35 16.06,-1.39 18.35,1.58C20.16,3.92 17.95,6.46 14.5,7.03C14.5,7.46 14.39,7.89 14.16,8.27C14.76,8.78 15.58,9.24 16.5,9.06C18.63,8.64 20.38,11.04 17.41,13.34C15.07,15.15 12.53,12.94 11.96,9.5C11.53,9.5 11.11,9.37 10.74,9.15C10.22,9.75 9.75,10.58 9.93,11.5C10.35,13.64 7.94,15.39 5.65,12.42C3.83,10.07 6.05,7.53 9.5,6.97C9.5,6.54 9.63,6.12 9.85,5.74C9.25,5.23 8.43,4.76 7.5,4.94C5.37,5.36 3.62,2.96 6.59,0.66M5,16H7A2,2 0 0,1 9,18V24H7V22H5V24H3V18A2,2 0 0,1 5,16M5,18V20H7V18H5M12.93,16H15L12.07,24H10L12.93,16M18,16H21V18H18V22H21V24H18A2,2 0 0,1 16,22V18A2,2 0 0,1 18,16Z" fill="rgb(236, 64, 122)"/></g><text x="503.5" y="242.7" text-anchor="start" font-size="12.0" font-weight="400" fill="rgb(33, 33, 33)" font-family="Roboto, system-ui, sans-serif" textLength="31.2" lengthAdjust="spacingAndGlyphs">Klima</text><text x="644" y="242.7" text-anchor="end" font-size="12.0" font-weight="500" fill="rgb(33, 33, 33)" font-family="Roboto, system-ui, sans-serif" textLength="44.2" lengthAdjust="spacingAndGlyphs">0,90 kW</text></g>
<g><g transform="translate(479.5,264) scale(0.7500)"><path d="M9,21V22H7V21A2,2 0 0,1 5,19V4A2,2 0 0,1 7,2H17A2,2 0 0,1 19,4V19A2,2 0 0,1 17,21V22H15V21H9M7,4V9H17V4H7M7,19H17V11H7V19M8,12H10V15H8V12M8,6H10V8H8V6Z" fill="rgb(141, 110, 99)"/></g><text x="503.5" y="276.7" text-anchor="start" font-size="12.0" font-weight="400" fill="rgb(33, 33, 33)" font-family="Roboto, system-ui, sans-serif" textLength="75.9" lengthAdjust="spacingAndGlyphs">Kühlschränke</text><text x="644" y="276.7" text-anchor="end" font-size="12.0" font-weight="500" fill="rgb(33, 33, 33)" font-family="Roboto, system-ui, sans-serif" textLength="44.2" lengthAdjust="spacingAndGlyphs">0,35 kW</text></g>
<g><circle cx="488.5" cy="307" r="5" fill="rgb(125, 125, 125)"/><text x="503.5" y="310.7" text-anchor="start" font-size="12.0" font-weight="400" fill="rgb(114, 114, 114)" font-family="Roboto, system-ui, sans-serif" textLength="24.1" lengthAdjust="spacingAndGlyphs">Rest</text><text x="644" y="310.7" text-anchor="end" font-size="12.0" font-weight="500" fill="rgb(114, 114, 114)" font-family="Roboto, system-ui, sans-serif" textLength="44.2" lengthAdjust="spacingAndGlyphs">0,15 kW</text></g>
</svg>
